<svg xmlns="http://www.w3.org/2000/svg" viewBox="0 0 48 48" width="48" height="48"><path fill="#000000" fill-rule="evenodd" d="M 23 14 L 22 15 L 22 21 L 21 22 L 15 22 L 14 23 L 14 24 L 15 25 L 21 25 L 22 26 L 22 32 L 23 33 L 24 33 L 25 32 L 25 26 L 26 25 L 32 25 L 33 24 L 33 23 L 32 22 L 26 22 L 25 21 L 25 15 L 24 14 Z M 18 4 L 17 5 L 16 5 L 15 6 L 14 6 L 13 7 L 12 7 L 7 12 L 7 13 L 6 14 L 6 15 L 5 16 L 5 17 L 4 18 L 4 29 L 5 30 L 5 31 L 6 32 L 6 33 L 7 34 L 7 35 L 12 40 L 13 40 L 14 41 L 15 41 L 16 42 L 17 42 L 18 43 L 29 43 L 30 42 L 31 42 L 32 41 L 33 41 L 34 40 L 35 40 L 40 35 L 40 34 L 41 33 L 41 32 L 42 31 L 42 30 L 43 29 L 43 18 L 42 17 L 42 16 L 41 15 L 41 14 L 40 13 L 40 12 L 35 7 L 34 7 L 33 6 L 32 6 L 31 5 L 30 5 L 29 4 Z M 22 6 L 25 6 L 26 7 L 29 7 L 30 8 L 31 8 L 32 9 L 33 9 L 38 14 L 38 15 L 39 16 L 39 17 L 40 18 L 40 21 L 41 22 L 41 25 L 40 26 L 40 29 L 39 30 L 39 31 L 38 32 L 38 33 L 33 38 L 32 38 L 31 39 L 30 39 L 29 40 L 26 40 L 25 41 L 22 41 L 21 40 L 18 40 L 17 39 L 16 39 L 15 38 L 14 38 L 9 33 L 9 32 L 8 31 L 8 30 L 7 29 L 7 26 L 6 25 L 6 22 L 7 21 L 7 18 L 8 17 L 8 16 L 9 15 L 9 14 L 14 9 L 15 9 L 16 8 L 17 8 L 18 7 L 21 7 Z"/></svg>