<svg xmlns="http://www.w3.org/2000/svg" viewBox="0 0 48 48" width="48" height="48"><path fill="#000000" fill-rule="evenodd" d="M 22 32 L 22 35 L 25 35 L 25 32 Z M 23 16 L 22 17 L 22 27 L 23 28 L 24 28 L 25 27 L 25 17 L 24 16 Z M 21 5 L 20 6 L 20 7 L 18 9 L 18 10 L 17 11 L 17 12 L 16 13 L 16 14 L 15 15 L 15 16 L 14 17 L 14 18 L 12 20 L 12 21 L 11 22 L 11 23 L 10 24 L 10 25 L 9 26 L 9 27 L 7 29 L 7 30 L 6 31 L 6 32 L 5 33 L 5 34 L 4 35 L 4 39 L 6 41 L 41 41 L 43 39 L 43 35 L 42 34 L 42 33 L 41 32 L 41 31 L 40 30 L 40 29 L 38 27 L 38 26 L 37 25 L 37 24 L 36 23 L 36 22 L 35 21 L 35 20 L 34 19 L 34 18 L 32 16 L 32 15 L 31 14 L 31 13 L 30 12 L 30 11 L 29 10 L 29 9 L 27 7 L 27 6 L 26 5 Z M 23 7 L 24 7 L 25 8 L 25 9 L 26 10 L 26 11 L 28 13 L 28 14 L 29 15 L 29 16 L 30 17 L 30 18 L 31 19 L 31 20 L 33 22 L 33 23 L 34 24 L 34 25 L 35 26 L 35 27 L 36 28 L 36 29 L 38 31 L 38 32 L 39 33 L 39 34 L 40 35 L 40 36 L 41 37 L 39 39 L 8 39 L 6 37 L 7 36 L 7 35 L 8 34 L 8 33 L 9 32 L 9 31 L 11 29 L 11 28 L 12 27 L 12 26 L 13 25 L 13 24 L 14 23 L 14 22 L 16 20 L 16 19 L 17 18 L 17 17 L 18 16 L 18 15 L 19 14 L 19 13 L 21 11 L 21 10 L 22 9 L 22 8 Z"/></svg>